<?xml version="1.0" encoding="iso-8859-1"?>
<svg height="40" width="40" version="1.1" id="Layer_1" xmlns="http://www.w3.org/2000/svg"
     viewBox="0 0 512.001 512.001" xml:space="preserve">
<path style="fill:#A1A1A1;" d="M428.021,206.922h-16.976V184.89c0-6.982-5.66-12.642-12.642-12.642H95.357
	c-6.982,0-12.642,5.66-12.642,12.642v104.387c0,90.666,73.499,164.165,164.165,164.165l0,0c59.297,0,111.247-31.442,140.1-78.561
	h41.042c46.306,0,83.979-37.673,83.979-83.979C512,244.596,474.327,206.922,428.021,206.922z M428.021,336.954h-24.017
	c4.573-15.089,7.042-31.094,7.042-47.678v-44.428h16.976c25.394,0,46.053,20.66,46.053,46.052
	C474.074,316.295,453.415,336.954,428.021,336.954z"/>
    <path style="fill:#D6D6D6;" d="M246.88,453.441L246.88,453.441c-90.666,0-164.165-73.499-164.165-164.165V184.889
	c0-6.982,5.66-12.642,12.642-12.642H246.88L246.88,453.441z"/>
    <path style="fill:#DE9833;" d="M311.98,101.175c24.518-24.518,30.486-60.547,17.933-90.686
	c-30.138-12.553-66.168-6.585-90.686,17.933s-30.486,60.547-17.933,90.686C251.432,131.661,287.462,125.694,311.98,101.175z"/>
    <path style="fill:#F3A938;" d="M246.874,21.652c-2.652,2.073-5.206,4.33-7.647,6.771c-24.518,24.518-30.486,60.547-17.933,90.686
	c8.215,3.421,16.867,5.468,25.605,6.136L246.874,21.652z"/>
    <path style="fill:#625F69;" d="M477.324,418.28H18.963C8.49,418.28,0,426.77,0,437.243c0,10.473,8.49,18.963,18.963,18.963h51.84
	l6.613,12.461c12.806,24.136,37.896,39.226,65.219,39.226h105.51h105.51c27.323,0,52.412-15.089,65.219-39.226l6.612-12.461h51.84
	c10.473,0,18.963-8.49,18.963-18.963C496.287,426.77,487.797,418.28,477.324,418.28z"/>
    <path style="fill:#827E8C;" d="M248.144,456.206V418.28H18.963C8.49,418.28,0,426.77,0,437.243c0,10.473,8.49,18.963,18.963,18.963
	h51.84l6.613,12.461c12.806,24.136,37.896,39.226,65.219,39.226h105.51L248.144,456.206z"/>
</svg>
